<?xml version="1.0" encoding="UTF-8"?>
<svg width="12px" height="24px" viewBox="0 0 12 24" version="1.1" xmlns="http://www.w3.org/2000/svg" xmlns:xlink="http://www.w3.org/1999/xlink">
    <title>柱状图/32@1x</title>
    <defs>
        <polygon id="path-1" points="-2.56461519e-14 20 -2.1166402e-13 3 6 5 12 3 12 20 6 22"></polygon>
        <linearGradient x1="50%" y1="0%" x2="50%" y2="100%" id="linearGradient-3">
            <stop stop-color="#FD2D2D" offset="0%"></stop>
            <stop stop-color="#FFCD75" offset="100%"></stop>
        </linearGradient>
        <linearGradient x1="50%" y1="0%" x2="50%" y2="100%" id="linearGradient-4">
            <stop stop-color="#222222" stop-opacity="0.187800481" offset="0%"></stop>
            <stop stop-color="#0D0D0D" stop-opacity="0" offset="100%"></stop>
        </linearGradient>
    </defs>
    <g id="页面-1" stroke="none" stroke-width="1" fill="none" fill-rule="evenodd">
        <g id="切图" transform="translate(-944.000000, -451.000000)">
            <g id="柱状图/32" transform="translate(944.000000, 451.000000)">
                <polygon id="路径-4" fill="#F7F7F7" points="12 2 6 4 6 5 12 3"></polygon>
                <polygon id="路径-4备份" fill="#F7F7F7" transform="translate(3.000000, 3.500000) scale(-1, 1) translate(-3.000000, -3.500000) " points="6 2 1.2490009e-14 4 1.2490009e-14 5 6 3"></polygon>
                <polygon id="路径-7" fill="#FFFFFF" points="0 2 6 0 12 2 6 4"></polygon>
                <polygon id="路径-4" fill="#000000" points="12 21 6 23 6 24 12 22"></polygon>
                <polygon id="路径-4备份" fill="#000000" transform="translate(3.000000, 22.500000) scale(-1, 1) translate(-3.000000, -22.500000) " points="6 21 1.2490009e-14 23 1.2490009e-14 24 6 22"></polygon>
                <polygon id="路径-7" fill="#2D2D2D" points="0 21 6 19 12 21 6 23"></polygon>
                <mask id="mask-2" fill="white">
                    <use xlink:href="#path-1"></use>
                </mask>
                <use id="蒙版" fill="#F7F7F7" xlink:href="#path-1"></use>
                <rect id="矩形" fill="url(#linearGradient-3)" mask="url(#mask-2)" x="0" y="-65" width="12" height="87"></rect>
                <rect id="矩形" fill="url(#linearGradient-4)" mask="url(#mask-2)" x="6" y="-65" width="6" height="87"></rect>
            </g>
        </g>
    </g>
</svg>